<svg width="16" height="16" viewBox="0 0 16 16" fill="none" xmlns="http://www.w3.org/2000/svg">
<path d="M15.5232 8.94116H8.54406L13.192 13.5891C13.3696 13.7667 13.662 13.7812 13.8446 13.6091C14.9829 12.5367 15.7658 11.0912 15.9955 9.46616C16.0349 9.18793 15.8041 8.94116 15.5232 8.94116V8.94116ZM15.0576 7.03528C14.8152 3.52176 12.0076 0.714119 8.49406 0.471767C8.22582 0.453237 7.99994 0.679413 7.99994 0.948236V7.5294H14.5814C14.8502 7.5294 15.0761 7.30352 15.0576 7.03528ZM6.58818 8.94116V1.96206C6.58818 1.68118 6.34141 1.45029 6.06347 1.48971C2.55847 1.985 -0.120646 5.04705 0.00405986 8.71675C0.132295 12.4856 3.37729 15.5761 7.14788 15.5288C8.63024 15.5103 9.99994 15.0326 11.1261 14.2338C11.3585 14.0691 11.3738 13.727 11.1723 13.5256L6.58818 8.94116Z" fill="#DDE2FF" fill-opacity="0.4"/>
</svg>
